<svg width="25" height="25" viewBox="0 0 25 25" fill="none" xmlns="http://www.w3.org/2000/svg">
<path d="M12.5984 2.54932C7.08445 2.54932 2.59845 7.03532 2.59845 12.5493C2.59845 18.0633 7.08445 22.5493 12.5984 22.5493C18.1124 22.5493 22.5984 18.0633 22.5984 12.5493C22.5984 7.03532 18.1124 2.54932 12.5984 2.54932ZM10.5995 16.9623L7.5939 13.9632C7.20315 13.5733 7.20236 12.9405 7.59214 12.5496C7.98216 12.1585 8.61546 12.1578 9.00638 12.548L10.5974 14.1363L15.1845 9.54932C15.5749 9.15885 16.208 9.15885 16.5984 9.54932C16.9889 9.93978 16.9889 10.5729 16.5984 10.9633L10.5995 16.9623Z" fill="#2FAB73"/>
</svg>